<mxfile host="app.diagrams.net" modified="2021-10-07T03:26:58.471Z" agent="5.0 (Windows NT 10.0; Win64; x64) AppleWebKit/537.36 (KHTML, like Gecko) Chrome/94.0.4606.71 Safari/537.36" etag="4Dw0G_ACWdITjjgh-Luh" version="15.4.3" type="github">
  <diagram id="EMvGMMCxx6XKPEilyFKA" name="Page-1">
    <mxGraphModel dx="1248" dy="677" grid="1" gridSize="10" guides="1" tooltips="1" connect="1" arrows="1" fold="1" page="1" pageScale="1" pageWidth="827" pageHeight="1169" math="0" shadow="0">
      <root>
        <mxCell id="0" />
        <mxCell id="1" parent="0" />
        <mxCell id="Y4Wwu05qVqmn_QEh-_5p-1" value="Dataset" style="shape=datastore;whiteSpace=wrap;html=1;" vertex="1" parent="1">
          <mxGeometry x="150" y="120" width="60" height="80" as="geometry" />
        </mxCell>
      </root>
    </mxGraphModel>
  </diagram>
</mxfile>
